<?plantuml 1.2026.2?><svg xmlns="http://www.w3.org/2000/svg" xmlns:xlink="http://www.w3.org/1999/xlink" contentStyleType="text/css" data-diagram-type="ACTIVITY" height="2246px" preserveAspectRatio="none" style="width:903px;height:2246px;background:#FFFFFF;" version="1.1" viewBox="0 0 903 2246" width="903px" zoomAndPan="magnify"><title>cloudfared-tunnel &#8212; Tunnel Lifecycle</title><defs/><g><g class="title" data-source-line="2"><text fill="#000000" font-family="Verdana" font-size="22" font-weight="bold" lengthAdjust="spacing" textLength="407.5294" x="246.4218" y="38.5181">cloudfared-tunnel &#8212; Tunnel Lifecycle</text></g><ellipse cx="451.6864" cy="65.9641" fill="#FFFFFF" rx="10" ry="10" style="stroke:#000000;stroke-width:1;"/><rect fill="#FFFFFF" height="87.412" style="stroke:#000000;stroke-width:1;" width="293.5978" x="304.8876" y="85.9641"/><path d="M390.5993,85.9641 L390.5993,98.032 L380.5993,108.032 L304.8876,108.032" fill="none" style="stroke:#000000;stroke-width:1;"/><text fill="#000000" font-family="Verdana" font-size="14" lengthAdjust="spacing" textLength="75.7117" x="307.8876" y="101.93">User Action</text><rect fill="#FFFFFF" height="36.3441" rx="12.5" ry="12.5" style="stroke:#000000;stroke-width:1;" width="273.5978" x="314.8876" y="125.032"/><text fill="#000000" font-family="Verdana" font-size="12" lengthAdjust="spacing" textLength="253.5978" x="324.8876" y="147.8601">User launches python3 -m cloudfared_tunnel</text><rect fill="#FFFFFF" height="296.0151" style="stroke:#000000;stroke-width:1;" width="891.3729" x="6" y="183.3761"/><path d="M115.5956,183.3761 L115.5956,195.444 L105.5956,205.444 L6,205.444" fill="none" style="stroke:#000000;stroke-width:1;"/><text fill="#000000" font-family="Verdana" font-size="14" lengthAdjust="spacing" textLength="99.5956" x="9" y="199.3421">CLI / Controller</text><polygon fill="#FFFFFF" points="116.5171,225.444,178.9527,225.444,190.9527,237.444,178.9527,249.444,116.5171,249.444,104.5171,237.444,116.5171,225.444" style="stroke:#000000;stroke-width:1;"/><text fill="#000000" font-family="Verdana" font-size="11" lengthAdjust="spacing" textLength="38.5327" x="151.7349" y="261.203">--status</text><text fill="#000000" font-family="Verdana" font-size="11" lengthAdjust="spacing" textLength="62.4355" x="116.5171" y="241.712">Arguments?</text><rect fill="#FFFFFF" height="36.3441" rx="12.5" ry="12.5" style="stroke:#000000;stroke-width:1;" width="109.0166" x="93.2266" y="282.703"/><text fill="#000000" font-family="Verdana" font-size="12" lengthAdjust="spacing" textLength="89.0166" x="103.2266" y="305.5311">call status_line()</text><rect fill="#FFFFFF" height="36.3441" rx="12.5" ry="12.5" style="stroke:#000000;stroke-width:1;" width="263.4698" x="16" y="354.0471"/><text fill="#000000" font-family="Verdana" font-size="12" lengthAdjust="spacing" textLength="243.4698" x="26" y="376.8752">print "HOSTED VM ON" / "HOSTED VM OFF"</text><ellipse cx="147.7349" cy="436.3912" fill="none" rx="11" ry="11" style="stroke:#000000;stroke-width:1;"/><ellipse cx="147.7349" cy="436.3912" fill="#FFFFFF" rx="6" ry="6" style="stroke:#000000;stroke-width:1;"/><polygon fill="#FFFFFF" points="345.9081,225.444,369.9081,225.444,381.9081,237.444,369.9081,249.444,345.9081,249.444,333.9081,237.444,345.9081,225.444" style="stroke:#000000;stroke-width:1;"/><text fill="#000000" font-family="Verdana" font-size="11" lengthAdjust="spacing" textLength="17.0829" x="361.9081" y="261.203">yes</text><text fill="#000000" font-family="Verdana" font-size="11" lengthAdjust="spacing" textLength="20.5368" x="347.6397" y="241.712">--on</text><rect fill="#FFFFFF" height="36.3441" rx="12.5" ry="12.5" style="stroke:#000000;stroke-width:1;" width="116.8767" x="299.4698" y="282.703"/><text fill="#000000" font-family="Verdana" font-size="12" lengthAdjust="spacing" textLength="96.8767" x="309.4698" y="305.5311">call tunnel_start()</text><polygon fill="#FFFFFF" points="482.0948,225.444,506.0948,225.444,518.0948,237.444,506.0948,249.444,482.0948,249.444,470.0948,237.444,482.0948,225.444" style="stroke:#000000;stroke-width:1;"/><text fill="#000000" font-family="Verdana" font-size="11" lengthAdjust="spacing" textLength="17.0829" x="498.0948" y="261.203">yes</text><text fill="#000000" font-family="Verdana" font-size="11" lengthAdjust="spacing" textLength="21.3068" x="483.4413" y="241.712">--off</text><rect fill="#FFFFFF" height="36.3441" rx="12.5" ry="12.5" style="stroke:#000000;stroke-width:1;" width="115.4967" x="436.3464" y="282.703"/><text fill="#000000" font-family="Verdana" font-size="12" lengthAdjust="spacing" textLength="95.4967" x="446.3464" y="305.5311">call tunnel_stop()</text><ellipse cx="494.0948" cy="365.0471" fill="none" rx="11" ry="11" style="stroke:#000000;stroke-width:1;"/><ellipse cx="494.0948" cy="365.0471" fill="#FFFFFF" rx="6" ry="6" style="stroke:#000000;stroke-width:1;"/><polygon fill="#FFFFFF" points="623.7761,225.444,652.3869,225.444,664.3869,237.444,652.3869,249.444,623.7761,249.444,611.7761,237.444,623.7761,225.444" style="stroke:#000000;stroke-width:1;"/><text fill="#000000" font-family="Verdana" font-size="11" lengthAdjust="spacing" textLength="17.0829" x="642.0815" y="261.203">yes</text><text fill="#000000" font-family="Verdana" font-size="11" lengthAdjust="spacing" textLength="28.6108" x="623.7761" y="241.712">--logs</text><text fill="#000000" font-family="Verdana" font-size="11" lengthAdjust="spacing" textLength="39.0607" x="664.3869" y="234.2211">no args</text><rect fill="#FFFFFF" height="36.3441" rx="12.5" ry="12.5" style="stroke:#000000;stroke-width:1;" width="103.6526" x="586.2552" y="282.703"/><text fill="#000000" font-family="Verdana" font-size="12" lengthAdjust="spacing" textLength="83.6526" x="596.2552" y="305.5311">call read_logs()</text><rect fill="#FFFFFF" height="36.3441" rx="12.5" ry="12.5" style="stroke:#000000;stroke-width:1;" width="132.4768" x="571.8431" y="354.0471"/><text fill="#000000" font-family="Verdana" font-size="12" lengthAdjust="spacing" textLength="112.4768" x="581.8431" y="376.8752">print journal entries</text><ellipse cx="638.0815" cy="436.3912" fill="none" rx="11" ry="11" style="stroke:#000000;stroke-width:1;"/><ellipse cx="638.0815" cy="436.3912" fill="#FFFFFF" rx="6" ry="6" style="stroke:#000000;stroke-width:1;"/><rect fill="#FFFFFF" height="36.3441" rx="12.5" ry="12.5" style="stroke:#000000;stroke-width:1;" width="163.053" x="724.3199" y="306.712"/><text fill="#000000" font-family="Verdana" font-size="12" lengthAdjust="spacing" textLength="143.053" x="734.3199" y="329.5401">curses.wrapper(main_tui)</text><rect fill="#FFFFFF" height="36.3441" rx="12.5" ry="12.5" style="stroke:#000000;stroke-width:1;" width="114.8007" x="748.4461" y="378.0561"/><text fill="#000000" font-family="Verdana" font-size="12" lengthAdjust="spacing" textLength="94.8007" x="758.4461" y="400.8842">Show dashboard</text><rect fill="#FFFFFF" height="295.3592" style="stroke:#000000;stroke-width:1;" width="654.719" x="124.327" y="489.3912"/><path d="M240.8526,489.3912 L240.8526,501.4591 L230.8526,511.4591 L124.327,511.4591" fill="none" style="stroke:#000000;stroke-width:1;"/><text fill="#000000" font-family="Verdana" font-size="14" lengthAdjust="spacing" textLength="106.5256" x="127.327" y="505.3571">TUI Key Handler</text><polygon fill="#FFFFFF" points="236.5309,531.4591,303.8064,531.4591,315.8064,543.4591,303.8064,555.4591,236.5309,555.4591,224.5309,543.4591,236.5309,531.4591" style="stroke:#000000;stroke-width:1;"/><text fill="#000000" font-family="Verdana" font-size="11" lengthAdjust="spacing" textLength="13.2769" x="274.1686" y="567.218">[S]</text><text fill="#000000" font-family="Verdana" font-size="11" lengthAdjust="spacing" textLength="67.2755" x="236.5309" y="547.7271">Key pressed?</text><polygon fill="#FFFFFF" points="233.5499,588.718,306.7874,588.718,318.7874,600.718,306.7874,612.718,233.5499,612.718,221.5499,600.718,233.5499,588.718" style="stroke:#000000;stroke-width:1;"/><text fill="#000000" font-family="Verdana" font-size="11" lengthAdjust="spacing" textLength="73.2375" x="233.5499" y="604.986">Tunnel active?</text><text fill="#000000" font-family="Verdana" font-size="11" lengthAdjust="spacing" textLength="17.0829" x="204.467" y="597.495">yes</text><text fill="#000000" font-family="Verdana" font-size="11" lengthAdjust="spacing" textLength="13.4529" x="318.7874" y="597.495">no</text><rect fill="#FFFFFF" height="36.3441" rx="12.5" ry="12.5" style="stroke:#000000;stroke-width:1;" width="115.4967" x="144.327" y="622.718"/><text fill="#000000" font-family="Verdana" font-size="12" lengthAdjust="spacing" textLength="95.4967" x="154.327" y="645.5461">call tunnel_stop()</text><rect fill="#FFFFFF" height="36.3441" rx="12.5" ry="12.5" style="stroke:#000000;stroke-width:1;" width="116.8767" x="279.8236" y="622.718"/><text fill="#000000" font-family="Verdana" font-size="12" lengthAdjust="spacing" textLength="96.8767" x="289.8236" y="645.5461">call tunnel_start()</text><polygon fill="#FFFFFF" points="270.1686,665.0621,282.1686,677.0621,270.1686,689.0621,258.1686,677.0621,270.1686,665.0621" style="stroke:#000000;stroke-width:1;"/><polygon fill="#FFFFFF" points="462.2365,531.4591,486.2365,531.4591,498.2365,543.4591,486.2365,555.4591,462.2365,555.4591,450.2365,543.4591,462.2365,531.4591" style="stroke:#000000;stroke-width:1;"/><text fill="#000000" font-family="Verdana" font-size="11" lengthAdjust="spacing" textLength="17.0829" x="478.2365" y="567.218">yes</text><text fill="#000000" font-family="Verdana" font-size="11" lengthAdjust="spacing" textLength="14.0799" x="467.1966" y="547.7271">[R]</text><rect fill="#FFFFFF" height="36.3441" rx="12.5" ry="12.5" style="stroke:#000000;stroke-width:1;" width="93.6925" x="427.3903" y="588.718"/><text fill="#000000" font-family="Verdana" font-size="12" lengthAdjust="spacing" textLength="73.6925" x="437.3903" y="611.5461">tunnel_stop()</text><rect fill="#FFFFFF" height="36.3441" rx="12.5" ry="12.5" style="stroke:#000000;stroke-width:1;" width="75.5724" x="436.4503" y="660.0621"/><text fill="#000000" font-family="Verdana" font-size="12" lengthAdjust="spacing" textLength="55.5724" x="446.4503" y="682.8902">sleep 0.5s</text><rect fill="#FFFFFF" height="36.3441" rx="12.5" ry="12.5" style="stroke:#000000;stroke-width:1;" width="95.0725" x="426.7003" y="716.4062"/><text fill="#000000" font-family="Verdana" font-size="12" lengthAdjust="spacing" textLength="75.0725" x="436.7003" y="739.2343">tunnel_start()</text><polygon fill="#FFFFFF" points="618.4094,531.4591,642.4094,531.4591,654.4094,543.4591,642.4094,555.4591,618.4094,555.4591,606.4094,543.4591,618.4094,531.4591" style="stroke:#000000;stroke-width:1;"/><text fill="#000000" font-family="Verdana" font-size="11" lengthAdjust="spacing" textLength="17.0829" x="634.4094" y="567.218">yes</text><text fill="#000000" font-family="Verdana" font-size="11" lengthAdjust="spacing" textLength="13.0019" x="623.9084" y="547.7271">[L]</text><text fill="#000000" font-family="Verdana" font-size="11" lengthAdjust="spacing" textLength="51.8536" x="654.4094" y="540.2361">[Q] or ESC</text><rect fill="#FFFFFF" height="36.3441" rx="12.5" ry="12.5" style="stroke:#000000;stroke-width:1;" width="177.2731" x="541.7728" y="588.718"/><text fill="#000000" font-family="Verdana" font-size="12" lengthAdjust="spacing" textLength="157.2731" x="551.7728" y="611.5461">toggle log / dashboard view</text><ellipse cx="754.0459" cy="673.7432" fill="none" rx="11" ry="11" style="stroke:#000000;stroke-width:1;"/><ellipse cx="754.0459" cy="673.7432" fill="#FFFFFF" rx="6" ry="6" style="stroke:#000000;stroke-width:1;"/><rect fill="#FFFFFF" height="354.4444" style="stroke:#000000;stroke-width:1;" width="702.2692" x="72.0585" y="794.7504"/><path d="M169.6421,794.7504 L169.6421,806.8183 L159.6421,816.8183 L72.0585,816.8183" fill="none" style="stroke:#000000;stroke-width:1;"/><text fill="#000000" font-family="Verdana" font-size="14" lengthAdjust="spacing" textLength="87.5837" x="75.0585" y="810.7163">tunnel_start()</text><rect fill="#FFFFFF" height="36.3441" rx="12.5" ry="12.5" style="stroke:#000000;stroke-width:1;" width="266.0618" x="318.6556" y="833.8183"/><text fill="#000000" font-family="Verdana" font-size="12" lengthAdjust="spacing" textLength="246.0618" x="328.6556" y="856.6464">Read token from /.cloudflared/tunnel-token</text><polygon fill="#FFFFFF" points="417.3612,890.1624,486.0117,890.1624,498.0117,902.1624,486.0117,914.1624,417.3612,914.1624,405.3612,902.1624,417.3612,890.1624" style="stroke:#000000;stroke-width:1;"/><text fill="#000000" font-family="Verdana" font-size="11" lengthAdjust="spacing" textLength="68.6505" x="417.3612" y="906.4304">Token exists?</text><text fill="#000000" font-family="Verdana" font-size="11" lengthAdjust="spacing" textLength="17.0829" x="388.2783" y="898.9394">yes</text><text fill="#000000" font-family="Verdana" font-size="11" lengthAdjust="spacing" textLength="13.4529" x="498.0117" y="898.9394">no</text><rect fill="#FFFFFF" height="36.3441" rx="12.5" ry="12.5" style="stroke:#000000;stroke-width:1;" width="287.89" x="139.1992" y="924.1624"/><text fill="#000000" font-family="Verdana" font-size="12" lengthAdjust="spacing" textLength="267.89" x="149.1992" y="946.9905">systemctl --user start cloudflared-tunnel.service</text><rect fill="#FFFFFF" height="36.3441" rx="12.5" ry="12.5" style="stroke:#000000;stroke-width:1;" width="65.4923" x="250.398" y="980.5065"/><text fill="#000000" font-family="Verdana" font-size="12" lengthAdjust="spacing" textLength="45.4923" x="260.398" y="1003.3346">sleep 1s</text><polygon fill="#FFFFFF" points="242.6149,1036.8506,323.6734,1036.8506,335.6734,1048.8506,323.6734,1060.8506,242.6149,1060.8506,230.6149,1048.8506,242.6149,1036.8506" style="stroke:#000000;stroke-width:1;"/><text fill="#000000" font-family="Verdana" font-size="11" lengthAdjust="spacing" textLength="81.0584" x="242.6149" y="1053.1186">systemd active?</text><text fill="#000000" font-family="Verdana" font-size="11" lengthAdjust="spacing" textLength="17.0829" x="213.5321" y="1045.6276">yes</text><text fill="#000000" font-family="Verdana" font-size="11" lengthAdjust="spacing" textLength="13.4529" x="335.6734" y="1045.6276">no</text><rect fill="#FFFFFF" height="36.3441" rx="12.5" ry="12.5" style="stroke:#000000;stroke-width:1;" width="175.1357" x="102.0585" y="1070.8506"/><text fill="#000000" font-family="Verdana" font-size="12" lengthAdjust="spacing" textLength="155.1357" x="112.0585" y="1093.6787">Save state.json &#8594; "running"</text><rect fill="#FFFFFF" height="36.3441" rx="12.5" ry="12.5" style="stroke:#000000;stroke-width:1;" width="158.9356" x="297.1942" y="1070.8506"/><text fill="#000000" font-family="Verdana" font-size="12" lengthAdjust="spacing" textLength="138.9356" x="307.1942" y="1093.6787">Save state.json &#8594; "error"</text><polygon fill="#FFFFFF" points="283.1442,1113.1947,295.1442,1125.1947,283.1442,1137.1947,271.1442,1125.1947,283.1442,1113.1947" style="stroke:#000000;stroke-width:1;"/><rect fill="#FFFFFF" height="36.3441" rx="12.5" ry="12.5" style="stroke:#000000;stroke-width:1;" width="268.1978" x="486.1298" y="924.1624"/><text fill="#000000" font-family="Verdana" font-size="12" lengthAdjust="spacing" textLength="248.1978" x="496.1298" y="946.9905">Return {status:"error", message:"No token"}</text><ellipse cx="620.2287" cy="991.5065" fill="none" rx="11" ry="11" style="stroke:#000000;stroke-width:1;"/><ellipse cx="620.2287" cy="991.5065" fill="#FFFFFF" rx="6" ry="6" style="stroke:#000000;stroke-width:1;"/><rect fill="#FFFFFF" height="143.7561" style="stroke:#000000;stroke-width:1;" width="287.4657" x="307.9536" y="1159.1947"/><path d="M373.1554,1159.1947 L373.1554,1171.2627 L363.1554,1181.2627 L307.9536,1181.2627" fill="none" style="stroke:#000000;stroke-width:1;"/><text fill="#000000" font-family="Verdana" font-size="14" lengthAdjust="spacing" textLength="55.2018" x="310.9536" y="1175.1607">systemd</text><rect fill="#FFFFFF" height="36.3441" rx="12.5" ry="12.5" style="stroke:#000000;stroke-width:1;" width="267.4657" x="317.9536" y="1198.2627"/><text fill="#000000" font-family="Verdana" font-size="12" lengthAdjust="spacing" textLength="247.4657" x="327.9536" y="1221.0907">systemd activates run-cloudflared-tunnel.sh</text><rect fill="#FFFFFF" height="36.3441" rx="12.5" ry="12.5" style="stroke:#000000;stroke-width:1;" width="210.4654" x="346.4538" y="1254.6068"/><text fill="#000000" font-family="Verdana" font-size="12" lengthAdjust="spacing" textLength="190.4654" x="356.4538" y="1277.4349">Script passes token to cloudflared</text><rect fill="#FFFFFF" height="320.4444" style="stroke:#000000;stroke-width:1;" width="546.2352" x="176.5049" y="1312.9509"/><path d="M261.1386,1312.9509 L261.1386,1325.0188 L251.1386,1335.0188 L176.5049,1335.0188" fill="none" style="stroke:#000000;stroke-width:1;"/><text fill="#000000" font-family="Verdana" font-size="14" lengthAdjust="spacing" textLength="74.6337" x="179.5049" y="1328.9168">cloudflared</text><rect fill="#FFFFFF" height="36.3441" rx="12.5" ry="12.5" style="stroke:#000000;stroke-width:1;" width="238.5096" x="332.4317" y="1352.0188"/><text fill="#000000" font-family="Verdana" font-size="12" lengthAdjust="spacing" textLength="218.5096" x="342.4317" y="1374.8469">cloudflared tunnel run --token &lt;token&gt;</text><rect fill="#FFFFFF" height="36.3441" rx="12.5" ry="12.5" style="stroke:#000000;stroke-width:1;" width="276.3098" x="313.5315" y="1408.3629"/><text fill="#000000" font-family="Verdana" font-size="12" lengthAdjust="spacing" textLength="256.3098" x="323.5315" y="1431.191">Establish QUIC connection to Cloudflare Edge</text><polygon fill="#FFFFFF" points="410.6952,1464.707,492.6777,1464.707,504.6777,1476.707,492.6777,1488.707,410.6952,1488.707,398.6952,1476.707,410.6952,1464.707" style="stroke:#000000;stroke-width:1;"/><text fill="#000000" font-family="Verdana" font-size="11" lengthAdjust="spacing" textLength="81.9824" x="410.6952" y="1480.975">Connection OK?</text><text fill="#000000" font-family="Verdana" font-size="11" lengthAdjust="spacing" textLength="17.0829" x="381.6124" y="1473.4841">yes</text><text fill="#000000" font-family="Verdana" font-size="11" lengthAdjust="spacing" textLength="13.4529" x="504.6777" y="1473.4841">no</text><rect fill="#FFFFFF" height="36.3441" rx="12.5" ry="12.5" style="stroke:#000000;stroke-width:1;" width="247.2456" x="196.5049" y="1498.707"/><text fill="#000000" font-family="Verdana" font-size="12" lengthAdjust="spacing" textLength="227.2456" x="206.5049" y="1521.5351">Expose localhost:22 via public hostname</text><rect fill="#FFFFFF" height="36.3441" rx="12.5" ry="12.5" style="stroke:#000000;stroke-width:1;" width="214.4613" x="212.897" y="1555.0511"/><text fill="#000000" font-family="Verdana" font-size="12" lengthAdjust="spacing" textLength="194.4613" x="222.897" y="1577.8792">Expose metrics on 127.0.0.1:20241</text><rect fill="#FFFFFF" height="36.3441" rx="12.5" ry="12.5" style="stroke:#000000;stroke-width:1;" width="238.9896" x="463.7505" y="1498.707"/><text fill="#000000" font-family="Verdana" font-size="12" lengthAdjust="spacing" textLength="218.9896" x="473.7505" y="1521.5351">systemd auto-restarts (Restart=always)</text><polygon fill="#FFFFFF" points="451.6864,1597.3953,463.6864,1609.3953,451.6864,1621.3953,439.6864,1609.3953,451.6864,1597.3953" style="stroke:#000000;stroke-width:1;"/><rect fill="#FFFFFF" height="256.4444" style="stroke:#000000;stroke-width:1;" width="386.3945" x="258.4892" y="1643.3953"/><path d="M429.8651,1643.3953 L429.8651,1655.4632 L419.8651,1665.4632 L258.4892,1665.4632" fill="none" style="stroke:#000000;stroke-width:1;"/><text fill="#000000" font-family="Verdana" font-size="14" lengthAdjust="spacing" textLength="161.3759" x="261.4892" y="1659.3612">Cloudflare Edge &#8594; Client</text><rect fill="#FFFFFF" height="36.3441" rx="12.5" ry="12.5" style="stroke:#000000;stroke-width:1;" width="296.9846" x="303.1942" y="1682.4632"/><text fill="#000000" font-family="Verdana" font-size="12" lengthAdjust="spacing" textLength="276.9846" x="313.1942" y="1705.2913">Public hostname: ssh.domain.com &#8594; localhost:22</text><rect fill="#FFFFFF" height="36.3441" rx="12.5" ry="12.5" style="stroke:#000000;stroke-width:1;" width="366.3945" x="268.4892" y="1738.8073"/><text fill="#000000" font-family="Verdana" font-size="12" lengthAdjust="spacing" textLength="346.3945" x="278.4892" y="1761.6354">Client ProxyCommand: cloudflared access ssh --hostname %h</text><rect fill="#FFFFFF" height="36.3441" rx="12.5" ry="12.5" style="stroke:#000000;stroke-width:1;" width="187.3412" x="358.0158" y="1795.1514"/><text fill="#000000" font-family="Verdana" font-size="12" lengthAdjust="spacing" textLength="167.3412" x="368.0158" y="1817.9795">QUIC tunnel relays SSH traffic</text><rect fill="#FFFFFF" height="36.3441" rx="12.5" ry="12.5" style="stroke:#000000;stroke-width:1;" width="203.9013" x="349.7358" y="1851.4955"/><text fill="#000000" font-family="Verdana" font-size="12" lengthAdjust="spacing" textLength="183.9013" x="359.7358" y="1874.3236">SSH session active on hosted VM</text><rect fill="#FFFFFF" height="264.1003" style="stroke:#000000;stroke-width:1;" width="545.3592" x="156.4017" y="1909.8396"/><path d="M260.8593,1909.8396 L260.8593,1921.9075 L250.8593,1931.9075 L156.4017,1931.9075" fill="none" style="stroke:#000000;stroke-width:1;"/><text fill="#000000" font-family="Verdana" font-size="14" lengthAdjust="spacing" textLength="94.4576" x="159.4017" y="1925.8056">Boot Recovery</text><rect fill="#FFFFFF" height="36.3441" rx="12.5" ry="12.5" style="stroke:#000000;stroke-width:1;" width="95.8766" x="403.7482" y="1948.9075"/><text fill="#000000" font-family="Verdana" font-size="12" lengthAdjust="spacing" textLength="75.8766" x="413.7482" y="1971.7356">System boots</text><rect fill="#FFFFFF" height="36.3441" rx="12.5" ry="12.5" style="stroke:#000000;stroke-width:1;" width="341.1703" x="281.1013" y="2005.2517"/><text fill="#000000" font-family="Verdana" font-size="12" lengthAdjust="spacing" textLength="321.1703" x="291.1013" y="2028.0798">restore-tunnel.sh reads /.cloudfared-tunneling/state.json</text><polygon fill="#FFFFFF" points="370.5785,2061.5958,532.7943,2061.5958,544.7943,2073.5958,532.7943,2085.5958,370.5785,2085.5958,358.5785,2073.5958,370.5785,2061.5958" style="stroke:#000000;stroke-width:1;"/><text fill="#000000" font-family="Verdana" font-size="11" lengthAdjust="spacing" textLength="162.2158" x="370.5785" y="2077.8637">Was running before shutdown?</text><text fill="#000000" font-family="Verdana" font-size="11" lengthAdjust="spacing" textLength="17.0829" x="341.4957" y="2070.3728">yes</text><text fill="#000000" font-family="Verdana" font-size="11" lengthAdjust="spacing" textLength="13.4529" x="544.7943" y="2070.3728">no</text><rect fill="#FFFFFF" height="36.3441" rx="12.5" ry="12.5" style="stroke:#000000;stroke-width:1;" width="287.89" x="176.4017" y="2095.5958"/><text fill="#000000" font-family="Verdana" font-size="12" lengthAdjust="spacing" textLength="267.89" x="186.4017" y="2118.4239">systemctl --user start cloudflared-tunnel.service</text><rect fill="#FFFFFF" height="36.3441" rx="12.5" ry="12.5" style="stroke:#000000;stroke-width:1;" width="197.4693" x="484.2916" y="2095.5958"/><text fill="#000000" font-family="Verdana" font-size="12" lengthAdjust="spacing" textLength="177.4693" x="494.2916" y="2118.4239">Stay stopped; no action needed</text><polygon fill="#FFFFFF" points="451.6864,2137.9399,463.6864,2149.9399,451.6864,2161.9399,439.6864,2149.9399,451.6864,2137.9399" style="stroke:#000000;stroke-width:1;"/><ellipse cx="451.6864" cy="2204.9399" fill="none" rx="11" ry="11" style="stroke:#000000;stroke-width:1;"/><ellipse cx="451.6864" cy="2204.9399" fill="#FFFFFF" rx="6" ry="6" style="stroke:#000000;stroke-width:1;"/><line style="stroke:#000000;stroke-width:1;" x1="451.6864" x2="451.6864" y1="75.9641" y2="125.032"/><polygon fill="#000000" points="447.6864,115.032,451.6864,125.032,455.6864,115.032,451.6864,119.032" style="stroke:#000000;stroke-width:1;"/><line style="stroke:#000000;stroke-width:1;" x1="147.7349" x2="147.7349" y1="319.0471" y2="354.0471"/><polygon fill="#000000" points="143.7349,344.0471,147.7349,354.0471,151.7349,344.0471,147.7349,348.0471" style="stroke:#000000;stroke-width:1;"/><line style="stroke:#000000;stroke-width:1;" x1="147.7349" x2="147.7349" y1="390.3912" y2="425.3912"/><polygon fill="#000000" points="143.7349,415.3912,147.7349,425.3912,151.7349,415.3912,147.7349,419.3912" style="stroke:#000000;stroke-width:1;"/><line style="stroke:#000000;stroke-width:1;" x1="494.0948" x2="494.0948" y1="319.0471" y2="354.0471"/><polygon fill="#000000" points="490.0948,344.0471,494.0948,354.0471,498.0948,344.0471,494.0948,348.0471" style="stroke:#000000;stroke-width:1;"/><line style="stroke:#000000;stroke-width:1;" x1="638.0815" x2="638.0815" y1="319.0471" y2="354.0471"/><polygon fill="#000000" points="634.0815,344.0471,638.0815,354.0471,642.0815,344.0471,638.0815,348.0471" style="stroke:#000000;stroke-width:1;"/><line style="stroke:#000000;stroke-width:1;" x1="638.0815" x2="638.0815" y1="390.3912" y2="425.3912"/><polygon fill="#000000" points="634.0815,415.3912,638.0815,425.3912,642.0815,415.3912,638.0815,419.3912" style="stroke:#000000;stroke-width:1;"/><line style="stroke:#000000;stroke-width:1;" x1="805.8464" x2="805.8464" y1="343.0561" y2="378.0561"/><polygon fill="#000000" points="801.8464,368.0561,805.8464,378.0561,809.8464,368.0561,805.8464,372.0561" style="stroke:#000000;stroke-width:1;"/><line style="stroke:#000000;stroke-width:1;" x1="147.7349" x2="147.7349" y1="249.444" y2="282.703"/><polygon fill="#000000" points="143.7349,272.703,147.7349,282.703,151.7349,272.703,147.7349,276.703" style="stroke:#000000;stroke-width:1;"/><line style="stroke:#000000;stroke-width:1;" x1="357.9081" x2="357.9081" y1="249.444" y2="282.703"/><polygon fill="#000000" points="353.9081,272.703,357.9081,282.703,361.9081,272.703,357.9081,276.703" style="stroke:#000000;stroke-width:1;"/><line style="stroke:#000000;stroke-width:1;" x1="357.9081" x2="357.9081" y1="319.0471" y2="467.3912"/><polygon fill="#000000" points="353.9081,457.3912,357.9081,467.3912,361.9081,457.3912,357.9081,461.3912" style="stroke:#000000;stroke-width:1;"/><line style="stroke:#000000;stroke-width:1;" x1="494.0948" x2="494.0948" y1="249.444" y2="282.703"/><polygon fill="#000000" points="490.0948,272.703,494.0948,282.703,498.0948,272.703,494.0948,276.703" style="stroke:#000000;stroke-width:1;"/><line style="stroke:#000000;stroke-width:1;" x1="638.0815" x2="638.0815" y1="249.444" y2="282.703"/><polygon fill="#000000" points="634.0815,272.703,638.0815,282.703,642.0815,272.703,638.0815,276.703" style="stroke:#000000;stroke-width:1;"/><line style="stroke:#000000;stroke-width:1;" x1="190.9527" x2="333.9081" y1="237.444" y2="237.444"/><polygon fill="#000000" points="323.9081,233.444,333.9081,237.444,323.9081,241.444,327.9081,237.444" style="stroke:#000000;stroke-width:1;"/><line style="stroke:#000000;stroke-width:1;" x1="381.9081" x2="470.0948" y1="237.444" y2="237.444"/><polygon fill="#000000" points="460.0948,233.444,470.0948,237.444,460.0948,241.444,464.0948,237.444" style="stroke:#000000;stroke-width:1;"/><line style="stroke:#000000;stroke-width:1;" x1="518.0948" x2="611.7761" y1="237.444" y2="237.444"/><polygon fill="#000000" points="601.7761,233.444,611.7761,237.444,601.7761,241.444,605.7761,237.444" style="stroke:#000000;stroke-width:1;"/><line style="stroke:#000000;stroke-width:1;" x1="451.6864" x2="451.6864" y1="161.3761" y2="210.444"/><line style="stroke:#000000;stroke-width:1;" x1="451.6864" x2="147.7349" y1="210.444" y2="210.444"/><line style="stroke:#000000;stroke-width:1;" x1="147.7349" x2="147.7349" y1="210.444" y2="225.444"/><polygon fill="#000000" points="143.7349,215.444,147.7349,225.444,151.7349,215.444,147.7349,219.444" style="stroke:#000000;stroke-width:1;"/><line style="stroke:#000000;stroke-width:1;" x1="664.3869" x2="805.8464" y1="237.444" y2="237.444"/><line style="stroke:#000000;stroke-width:1;" x1="805.8464" x2="805.8464" y1="237.444" y2="306.712"/><polygon fill="#000000" points="801.8464,296.712,805.8464,306.712,809.8464,296.712,805.8464,300.712" style="stroke:#000000;stroke-width:1;"/><line style="stroke:#000000;stroke-width:1;" x1="805.8464" x2="805.8464" y1="414.4002" y2="467.3912"/><polygon fill="#000000" points="801.8464,457.3912,805.8464,467.3912,809.8464,457.3912,805.8464,461.3912" style="stroke:#000000;stroke-width:1;"/><line style="stroke:#000000;stroke-width:1;" x1="357.9081" x2="805.8464" y1="467.3912" y2="467.3912"/><line style="stroke:#000000;stroke-width:1;" x1="221.5499" x2="202.0753" y1="600.718" y2="600.718"/><line style="stroke:#000000;stroke-width:1;" x1="202.0753" x2="202.0753" y1="600.718" y2="622.718"/><polygon fill="#000000" points="198.0753,612.718,202.0753,622.718,206.0753,612.718,202.0753,616.718" style="stroke:#000000;stroke-width:1;"/><line style="stroke:#000000;stroke-width:1;" x1="318.7874" x2="338.262" y1="600.718" y2="600.718"/><line style="stroke:#000000;stroke-width:1;" x1="338.262" x2="338.262" y1="600.718" y2="622.718"/><polygon fill="#000000" points="334.262,612.718,338.262,622.718,342.262,612.718,338.262,616.718" style="stroke:#000000;stroke-width:1;"/><line style="stroke:#000000;stroke-width:1;" x1="202.0753" x2="202.0753" y1="659.0621" y2="677.0621"/><line style="stroke:#000000;stroke-width:1;" x1="202.0753" x2="258.1686" y1="677.0621" y2="677.0621"/><polygon fill="#000000" points="248.1686,673.0621,258.1686,677.0621,248.1686,681.0621,252.1686,677.0621" style="stroke:#000000;stroke-width:1;"/><line style="stroke:#000000;stroke-width:1;" x1="338.262" x2="338.262" y1="659.0621" y2="677.0621"/><line style="stroke:#000000;stroke-width:1;" x1="338.262" x2="282.1686" y1="677.0621" y2="677.0621"/><polygon fill="#000000" points="292.1686,673.0621,282.1686,677.0621,292.1686,681.0621,288.1686,677.0621" style="stroke:#000000;stroke-width:1;"/><line style="stroke:#000000;stroke-width:1;" x1="474.2365" x2="474.2365" y1="625.0621" y2="660.0621"/><polygon fill="#000000" points="470.2365,650.0621,474.2365,660.0621,478.2365,650.0621,474.2365,654.0621" style="stroke:#000000;stroke-width:1;"/><line style="stroke:#000000;stroke-width:1;" x1="474.2365" x2="474.2365" y1="696.4062" y2="716.4062"/><polygon fill="#000000" points="470.2365,706.4062,474.2365,716.4062,478.2365,706.4062,474.2365,710.4062" style="stroke:#000000;stroke-width:1;"/><line style="stroke:#000000;stroke-width:1;" x1="270.1686" x2="270.1686" y1="555.4591" y2="588.718"/><polygon fill="#000000" points="266.1686,578.718,270.1686,588.718,274.1686,578.718,270.1686,582.718" style="stroke:#000000;stroke-width:1;"/><line style="stroke:#000000;stroke-width:1;" x1="270.1686" x2="270.1686" y1="689.0621" y2="772.7504"/><polygon fill="#000000" points="266.1686,762.7504,270.1686,772.7504,274.1686,762.7504,270.1686,766.7504" style="stroke:#000000;stroke-width:1;"/><line style="stroke:#000000;stroke-width:1;" x1="474.2365" x2="474.2365" y1="555.4591" y2="588.718"/><polygon fill="#000000" points="470.2365,578.718,474.2365,588.718,478.2365,578.718,474.2365,582.718" style="stroke:#000000;stroke-width:1;"/><line style="stroke:#000000;stroke-width:1;" x1="474.2365" x2="474.2365" y1="752.7504" y2="772.7504"/><polygon fill="#000000" points="470.2365,762.7504,474.2365,772.7504,478.2365,762.7504,474.2365,766.7504" style="stroke:#000000;stroke-width:1;"/><line style="stroke:#000000;stroke-width:1;" x1="630.4094" x2="630.4094" y1="555.4591" y2="588.718"/><polygon fill="#000000" points="626.4094,578.718,630.4094,588.718,634.4094,578.718,630.4094,582.718" style="stroke:#000000;stroke-width:1;"/><line style="stroke:#000000;stroke-width:1;" x1="630.4094" x2="630.4094" y1="625.0621" y2="772.7504"/><polygon fill="#000000" points="626.4094,762.7504,630.4094,772.7504,634.4094,762.7504,630.4094,766.7504" style="stroke:#000000;stroke-width:1;"/><line style="stroke:#000000;stroke-width:1;" x1="315.8064" x2="450.2365" y1="543.4591" y2="543.4591"/><polygon fill="#000000" points="440.2365,539.4591,450.2365,543.4591,440.2365,547.4591,444.2365,543.4591" style="stroke:#000000;stroke-width:1;"/><line style="stroke:#000000;stroke-width:1;" x1="498.2365" x2="606.4094" y1="543.4591" y2="543.4591"/><polygon fill="#000000" points="596.4094,539.4591,606.4094,543.4591,596.4094,547.4591,600.4094,543.4591" style="stroke:#000000;stroke-width:1;"/><line style="stroke:#000000;stroke-width:1;" x1="451.6864" x2="451.6864" y1="467.3912" y2="516.4591"/><line style="stroke:#000000;stroke-width:1;" x1="451.6864" x2="270.1686" y1="516.4591" y2="516.4591"/><line style="stroke:#000000;stroke-width:1;" x1="270.1686" x2="270.1686" y1="516.4591" y2="531.4591"/><polygon fill="#000000" points="266.1686,521.4591,270.1686,531.4591,274.1686,521.4591,270.1686,525.4591" style="stroke:#000000;stroke-width:1;"/><line style="stroke:#000000;stroke-width:1;" x1="654.4094" x2="754.0459" y1="543.4591" y2="543.4591"/><line style="stroke:#000000;stroke-width:1;" x1="754.0459" x2="754.0459" y1="543.4591" y2="662.7432"/><polygon fill="#000000" points="750.0459,652.7432,754.0459,662.7432,758.0459,652.7432,754.0459,656.7432" style="stroke:#000000;stroke-width:1;"/><line style="stroke:#000000;stroke-width:1;" x1="270.1686" x2="630.4094" y1="772.7504" y2="772.7504"/><line style="stroke:#000000;stroke-width:1;" x1="283.1442" x2="283.1442" y1="960.5065" y2="980.5065"/><polygon fill="#000000" points="279.1442,970.5065,283.1442,980.5065,287.1442,970.5065,283.1442,974.5065" style="stroke:#000000;stroke-width:1;"/><line style="stroke:#000000;stroke-width:1;" x1="230.6149" x2="189.6263" y1="1048.8506" y2="1048.8506"/><line style="stroke:#000000;stroke-width:1;" x1="189.6263" x2="189.6263" y1="1048.8506" y2="1070.8506"/><polygon fill="#000000" points="185.6263,1060.8506,189.6263,1070.8506,193.6263,1060.8506,189.6263,1064.8506" style="stroke:#000000;stroke-width:1;"/><line style="stroke:#000000;stroke-width:1;" x1="335.6734" x2="376.662" y1="1048.8506" y2="1048.8506"/><line style="stroke:#000000;stroke-width:1;" x1="376.662" x2="376.662" y1="1048.8506" y2="1070.8506"/><polygon fill="#000000" points="372.662,1060.8506,376.662,1070.8506,380.662,1060.8506,376.662,1064.8506" style="stroke:#000000;stroke-width:1;"/><line style="stroke:#000000;stroke-width:1;" x1="189.6263" x2="189.6263" y1="1107.1947" y2="1125.1947"/><line style="stroke:#000000;stroke-width:1;" x1="189.6263" x2="271.1442" y1="1125.1947" y2="1125.1947"/><polygon fill="#000000" points="261.1442,1121.1947,271.1442,1125.1947,261.1442,1129.1947,265.1442,1125.1947" style="stroke:#000000;stroke-width:1;"/><line style="stroke:#000000;stroke-width:1;" x1="376.662" x2="376.662" y1="1107.1947" y2="1125.1947"/><line style="stroke:#000000;stroke-width:1;" x1="376.662" x2="295.1442" y1="1125.1947" y2="1125.1947"/><polygon fill="#000000" points="305.1442,1121.1947,295.1442,1125.1947,305.1442,1129.1947,301.1442,1125.1947" style="stroke:#000000;stroke-width:1;"/><line style="stroke:#000000;stroke-width:1;" x1="283.1442" x2="283.1442" y1="1016.8506" y2="1036.8506"/><polygon fill="#000000" points="279.1442,1026.8506,283.1442,1036.8506,287.1442,1026.8506,283.1442,1030.8506" style="stroke:#000000;stroke-width:1;"/><line style="stroke:#000000;stroke-width:1;" x1="620.2287" x2="620.2287" y1="960.5065" y2="980.5065"/><polygon fill="#000000" points="616.2287,970.5065,620.2287,980.5065,624.2287,970.5065,620.2287,974.5065" style="stroke:#000000;stroke-width:1;"/><line style="stroke:#000000;stroke-width:1;" x1="405.3612" x2="283.1442" y1="902.1624" y2="902.1624"/><line style="stroke:#000000;stroke-width:1;" x1="283.1442" x2="283.1442" y1="902.1624" y2="924.1624"/><polygon fill="#000000" points="279.1442,914.1624,283.1442,924.1624,287.1442,914.1624,283.1442,918.1624" style="stroke:#000000;stroke-width:1;"/><line style="stroke:#000000;stroke-width:1;" x1="498.0117" x2="620.2287" y1="902.1624" y2="902.1624"/><line style="stroke:#000000;stroke-width:1;" x1="620.2287" x2="620.2287" y1="902.1624" y2="924.1624"/><polygon fill="#000000" points="616.2287,914.1624,620.2287,924.1624,624.2287,914.1624,620.2287,918.1624" style="stroke:#000000;stroke-width:1;"/><line style="stroke:#000000;stroke-width:1;" x1="283.1442" x2="283.1442" y1="1137.1947" y2="1142.1947"/><line style="stroke:#000000;stroke-width:1;" x1="283.1442" x2="451.6864" y1="1142.1947" y2="1142.1947"/><line style="stroke:#000000;stroke-width:1;" x1="451.6864" x2="451.6864" y1="1142.1947" y2="1198.2627"/><polygon fill="#000000" points="447.6864,1188.2627,451.6864,1198.2627,455.6864,1188.2627,451.6864,1192.2627" style="stroke:#000000;stroke-width:1;"/><line style="stroke:#000000;stroke-width:1;" x1="451.6864" x2="451.6864" y1="870.1624" y2="890.1624"/><polygon fill="#000000" points="447.6864,880.1624,451.6864,890.1624,455.6864,880.1624,451.6864,884.1624" style="stroke:#000000;stroke-width:1;"/><line style="stroke:#000000;stroke-width:1;" x1="451.6864" x2="451.6864" y1="772.7504" y2="833.8183"/><polygon fill="#000000" points="447.6864,823.8183,451.6864,833.8183,455.6864,823.8183,451.6864,827.8183" style="stroke:#000000;stroke-width:1;"/><line style="stroke:#000000;stroke-width:1;" x1="451.6864" x2="451.6864" y1="1234.6068" y2="1254.6068"/><polygon fill="#000000" points="447.6864,1244.6068,451.6864,1254.6068,455.6864,1244.6068,451.6864,1248.6068" style="stroke:#000000;stroke-width:1;"/><line style="stroke:#000000;stroke-width:1;" x1="451.6864" x2="451.6864" y1="1388.3629" y2="1408.3629"/><polygon fill="#000000" points="447.6864,1398.3629,451.6864,1408.3629,455.6864,1398.3629,451.6864,1402.3629" style="stroke:#000000;stroke-width:1;"/><line style="stroke:#000000;stroke-width:1;" x1="320.1277" x2="320.1277" y1="1535.0511" y2="1555.0511"/><polygon fill="#000000" points="316.1277,1545.0511,320.1277,1555.0511,324.1277,1545.0511,320.1277,1549.0511" style="stroke:#000000;stroke-width:1;"/><line style="stroke:#000000;stroke-width:1;" x1="398.6952" x2="320.1277" y1="1476.707" y2="1476.707"/><line style="stroke:#000000;stroke-width:1;" x1="320.1277" x2="320.1277" y1="1476.707" y2="1498.707"/><polygon fill="#000000" points="316.1277,1488.707,320.1277,1498.707,324.1277,1488.707,320.1277,1492.707" style="stroke:#000000;stroke-width:1;"/><line style="stroke:#000000;stroke-width:1;" x1="504.6777" x2="583.2452" y1="1476.707" y2="1476.707"/><line style="stroke:#000000;stroke-width:1;" x1="583.2452" x2="583.2452" y1="1476.707" y2="1498.707"/><polygon fill="#000000" points="579.2452,1488.707,583.2452,1498.707,587.2452,1488.707,583.2452,1492.707" style="stroke:#000000;stroke-width:1;"/><line style="stroke:#000000;stroke-width:1;" x1="320.1277" x2="320.1277" y1="1591.3953" y2="1609.3953"/><line style="stroke:#000000;stroke-width:1;" x1="320.1277" x2="439.6864" y1="1609.3953" y2="1609.3953"/><polygon fill="#000000" points="429.6864,1605.3953,439.6864,1609.3953,429.6864,1613.3953,433.6864,1609.3953" style="stroke:#000000;stroke-width:1;"/><line style="stroke:#000000;stroke-width:1;" x1="583.2452" x2="583.2452" y1="1535.0511" y2="1609.3953"/><line style="stroke:#000000;stroke-width:1;" x1="583.2452" x2="463.6864" y1="1609.3953" y2="1609.3953"/><polygon fill="#000000" points="473.6864,1605.3953,463.6864,1609.3953,473.6864,1613.3953,469.6864,1609.3953" style="stroke:#000000;stroke-width:1;"/><line style="stroke:#000000;stroke-width:1;" x1="451.6864" x2="451.6864" y1="1444.707" y2="1464.707"/><polygon fill="#000000" points="447.6864,1454.707,451.6864,1464.707,455.6864,1454.707,451.6864,1458.707" style="stroke:#000000;stroke-width:1;"/><line style="stroke:#000000;stroke-width:1;" x1="451.6864" x2="451.6864" y1="1290.9509" y2="1352.0188"/><polygon fill="#000000" points="447.6864,1342.0188,451.6864,1352.0188,455.6864,1342.0188,451.6864,1346.0188" style="stroke:#000000;stroke-width:1;"/><line style="stroke:#000000;stroke-width:1;" x1="451.6864" x2="451.6864" y1="1718.8073" y2="1738.8073"/><polygon fill="#000000" points="447.6864,1728.8073,451.6864,1738.8073,455.6864,1728.8073,451.6864,1732.8073" style="stroke:#000000;stroke-width:1;"/><line style="stroke:#000000;stroke-width:1;" x1="451.6864" x2="451.6864" y1="1775.1514" y2="1795.1514"/><polygon fill="#000000" points="447.6864,1785.1514,451.6864,1795.1514,455.6864,1785.1514,451.6864,1789.1514" style="stroke:#000000;stroke-width:1;"/><line style="stroke:#000000;stroke-width:1;" x1="451.6864" x2="451.6864" y1="1831.4955" y2="1851.4955"/><polygon fill="#000000" points="447.6864,1841.4955,451.6864,1851.4955,455.6864,1841.4955,451.6864,1845.4955" style="stroke:#000000;stroke-width:1;"/><line style="stroke:#000000;stroke-width:1;" x1="451.6864" x2="451.6864" y1="1621.3953" y2="1682.4632"/><polygon fill="#000000" points="447.6864,1672.4632,451.6864,1682.4632,455.6864,1672.4632,451.6864,1676.4632" style="stroke:#000000;stroke-width:1;"/><line style="stroke:#000000;stroke-width:1;" x1="451.6864" x2="451.6864" y1="1985.2517" y2="2005.2517"/><polygon fill="#000000" points="447.6864,1995.2517,451.6864,2005.2517,455.6864,1995.2517,451.6864,1999.2517" style="stroke:#000000;stroke-width:1;"/><line style="stroke:#000000;stroke-width:1;" x1="358.5785" x2="320.3466" y1="2073.5958" y2="2073.5958"/><line style="stroke:#000000;stroke-width:1;" x1="320.3466" x2="320.3466" y1="2073.5958" y2="2095.5958"/><polygon fill="#000000" points="316.3466,2085.5958,320.3466,2095.5958,324.3466,2085.5958,320.3466,2089.5958" style="stroke:#000000;stroke-width:1;"/><line style="stroke:#000000;stroke-width:1;" x1="544.7943" x2="583.0262" y1="2073.5958" y2="2073.5958"/><line style="stroke:#000000;stroke-width:1;" x1="583.0262" x2="583.0262" y1="2073.5958" y2="2095.5958"/><polygon fill="#000000" points="579.0262,2085.5958,583.0262,2095.5958,587.0262,2085.5958,583.0262,2089.5958" style="stroke:#000000;stroke-width:1;"/><line style="stroke:#000000;stroke-width:1;" x1="320.3466" x2="320.3466" y1="2131.9399" y2="2149.9399"/><line style="stroke:#000000;stroke-width:1;" x1="320.3466" x2="439.6864" y1="2149.9399" y2="2149.9399"/><polygon fill="#000000" points="429.6864,2145.9399,439.6864,2149.9399,429.6864,2153.9399,433.6864,2149.9399" style="stroke:#000000;stroke-width:1;"/><line style="stroke:#000000;stroke-width:1;" x1="583.0262" x2="583.0262" y1="2131.9399" y2="2149.9399"/><line style="stroke:#000000;stroke-width:1;" x1="583.0262" x2="463.6864" y1="2149.9399" y2="2149.9399"/><polygon fill="#000000" points="473.6864,2145.9399,463.6864,2149.9399,473.6864,2153.9399,469.6864,2149.9399" style="stroke:#000000;stroke-width:1;"/><line style="stroke:#000000;stroke-width:1;" x1="451.6864" x2="451.6864" y1="2041.5958" y2="2061.5958"/><polygon fill="#000000" points="447.6864,2051.5958,451.6864,2061.5958,455.6864,2051.5958,451.6864,2055.5958" style="stroke:#000000;stroke-width:1;"/><line style="stroke:#000000;stroke-width:1;" x1="451.6864" x2="451.6864" y1="1887.8396" y2="1948.9075"/><polygon fill="#000000" points="447.6864,1938.9075,451.6864,1948.9075,455.6864,1938.9075,451.6864,1942.9075" style="stroke:#000000;stroke-width:1;"/><line style="stroke:#000000;stroke-width:1;" x1="451.6864" x2="451.6864" y1="2161.9399" y2="2193.9399"/><polygon fill="#000000" points="447.6864,2183.9399,451.6864,2193.9399,455.6864,2183.9399,451.6864,2187.9399" style="stroke:#000000;stroke-width:1;"/><g class="footer" data-source-line="3"><text fill="#000000" font-family="Verdana" font-size="10" lengthAdjust="spacing" textLength="283.1098" x="308.6315" y="2230.6299">cloudfared-tunnel v2.0.0 &#8212; Hosted VM via Cloudflare Tunnel</text></g><?plantuml-src pLRTRjis5BxtKvm966O3av9u6mR8suhEIv6WQTD6oNOH104Z7LdgA58WAJj6qQ5NUu2XJvWdsI4fsV9VUxEB0OOja-U7v_k-SwYlJ84LGirPAGQcD1mXvRB9SgOm2qqZ179u-lW9hltZHPbZkamv3d8f3QezrlDnT1mTEwSpgGrcyFihc9SCfiwKasqRRJ3u1fu-VVGVU4L7W9pBnNhj__aP3BHXoWm6DNsNffG2WXjDM3nFxPy0tWy0OhV2MIFI0ZNKIrD8yHs4LG-nUu_OPF1X8zRquXoEO2g5KP9pL3vWcSFmkPer5GgZdus0Y1Cm34CwYsdqY2meQSeu1xzopqk1mz74RzIg50Q2iyla-lGtIyZbwu2Iz1TUl0YyiJQofWVa6ctIC9IYIxV4ZKp-_FSE3f-gvvJdN_AITNU-dPHSplG1TuKikxVxMyMzauqIZ0FXeqhKEu5XA2GmDLi5QvH67IqKgsjKmuhaHuIKNT2a82LcJ1SFagdCrIQoCj_Ywlhc75xY4iwOo3QeiekrGgqnMv5rczpvtDQWRIX6cfdZivrQFmDMLym1mnKNtOdNkDvUtUs2kYT3h3bY3SVH3osCyM6cRo_snPIp6OqIOeb4jWAHfW0k9YiwRj_UWLHmcan76rpjWNapVTjXLoG4CF9FIfqhMS5VHr6w6Z7PaVS9dS6aPUNQMUDZgNizj3wsNjAygbB38GmRsxyk8VIYjaCkeirvcU86N2SjM3QHZvHzZjw4pT7rAaRlD1NvzFS_42WANufPS83flJweb5J1BkDhJuBAK7F0UpyQujRbMwX8e6o6SV1QUYI33vClST6MrfAmKIYTImEL4Ev3hB2HuoHLPMsWPjGPkcNFo3x4s-EmjzNcxAsqihT9YJCVxYVtyujBTqeLF_1I5_3svdmAgIHhDwLjqjw5T9hDi1F9T6rq-NAFIauVQwcjkAdl2hhXul7OtMzrGvbIi4k2LPqsMkiAQIgb6YZeoVX7UqD69_7uUFpzoMINhXMeZP4X3H6hGWt3A__qC-CBjjIZGpDfgomdaYalQIws-BtPF6WCMXTH9kq4Z59g9ElGhyuXwIF06oKVbrDPLJJmuZvjf82Kr6HZ4HDTRFZQq-xGxxX2JiU793a3erYUbwbN1lqdJMXRWsyR2rRHlK9io-9NUl-0Aqpb7DMoBInnkC43RRbUZ2rsKk5QW-xsqEjHqLCejTtHkhKwCVp1dA9jKy83vXGCTD6OJ2x4VpL0jiXF35kw_gkf5y3UMLwB0Z73pOl8TUc_?></g></svg>